<?xml version="1.0" encoding="utf-8"?>
<svg width="560px" height="400px" viewBox="0 0 560 400" version="1.1" xmlns:xlink="http://www.w3.org/1999/xlink" xmlns="http://www.w3.org/2000/svg">
  <defs>
    <linearGradient gradientUnits="userSpaceOnUse" x1="-150.02931" y1="81.74652" x2="446.43127" y2="29.562946" id="gradient_1">
      <stop offset="0%" stop-color="#00B16B" />
      <stop offset="35%" stop-color="#006DB6" />
      <stop offset="65%" stop-color="#8E278F" />
      <stop offset="90%" stop-color="#F04C23" />
      <stop offset="100%" stop-color="#F04C23" />
    </linearGradient>
    <path d="M0 0L560 0L560 400L0 400L0 0Z" id="path_1" />
    <clipPath id="mask_1">
      <use xlink:href="#path_1" />
    </clipPath>
  </defs>
  <g id="adani">
    <path d="M0 0L560 0L560 400L0 400L0 0Z" id="Background" fill="#FFFFFF" fill-opacity="0" fill-rule="evenodd" stroke="none" />
    <path d="M422.155 153.833C422.155 158.78 425.909 162.994 431.147 162.994C436.097 162.994 440 158.78 440 153.833C440 148.872 436.097 145 431.147 145C425.909 145 422.155 148.872 422.155 153.833M245.844 153.833L245.844 176.307C240.901 174.054 233.419 171.966 226.212 171.966C206.896 171.966 195.802 183.482 194.14 202.071C193.696 207.487 193.696 218.129 194.14 223.368C195.802 241.793 208.076 254.245 228.314 254.245C242.845 254.245 254.981 247.791 258.887 244.918C261.29 243.286 261.746 241.641 261.746 238.933L261.746 153.833C261.746 149.341 258.281 145.734 253.786 145.734C249.456 145.734 245.844 149.341 245.844 153.833M210.014 221.407C209.583 216.763 209.723 207.93 210.014 203.868C210.634 192.947 216.026 187.24 227.411 187.24C235.22 187.24 242.706 189.948 245.844 191.897L245.844 233.542C242.845 235.808 235.065 238.933 228.612 238.933C217.066 238.933 210.931 232.948 210.014 221.407M348.764 180.192C346.529 181.711 345.6 183.204 345.6 186.342L345.6 245.222C345.6 249.728 349.352 253.334 353.562 253.334C358.043 253.334 361.508 249.728 361.508 245.222L361.508 191.454C364.927 189.354 371.986 187.241 379.314 187.241C388.622 187.241 396.73 192.34 396.73 204.337L396.73 245.223C396.73 249.728 400.461 253.334 404.657 253.334C409.316 253.334 412.61 249.728 412.61 245.223L412.61 203.577C412.61 183.343 401.507 171.967 379.785 171.967C364.052 171.967 353.104 176.915 348.764 180.192M281.043 176.447C277.002 178.256 275.786 181.243 275.786 183.811C275.786 188.443 280.147 191.897 286.74 189.797C290.94 188.291 296.938 186.494 303.08 186.494C314.752 186.494 319.712 190.847 319.712 201.034L319.712 205.969C312.811 204.337 307.7 203.438 300.669 203.438C279.696 203.438 270.247 215.283 270.247 228.316C270.247 243.008 280.427 254.245 300.962 254.245C316.555 254.245 327.955 248.677 332.159 245.843C334.398 244.337 334.992 242.704 334.992 239.996L334.992 201.034C334.992 180.8 323.148 171.967 303.969 171.967C294.85 171.967 285.395 174.346 281.043 176.447M285.836 227.735C285.836 220.522 292.422 216.459 301.565 216.459C308.323 216.459 313.116 217.371 319.712 219.003L319.712 235.669C318.201 236.846 312.674 240.313 302.323 240.313C291.687 240.313 285.836 235.808 285.836 227.735M130.754 176.447C126.716 178.257 125.496 181.243 125.496 183.812C125.496 188.443 129.85 191.898 136.451 189.797C140.647 188.291 146.655 186.494 152.782 186.494C164.484 186.494 169.423 190.847 169.423 201.034L169.423 205.969C162.521 204.337 157.431 203.438 150.385 203.438C130.12 203.438 120.621 214.498 120 226.988L120 229.747C120.643 243.717 130.818 254.245 150.677 254.245C166.284 254.245 177.658 248.677 181.873 245.843C184.115 244.337 184.706 242.704 184.706 239.996L184.706 201.034C184.706 180.8 172.862 171.967 153.686 171.967C144.543 171.967 135.109 174.346 130.754 176.447M135.561 227.735C135.561 220.522 142.142 216.459 151.286 216.459C158.026 216.459 162.836 217.371 169.423 219.003L169.423 235.669C167.931 236.846 162.367 240.313 152.029 240.313C141.397 240.313 135.561 235.808 135.561 227.735M423.202 181.42L423.202 245.552C423.202 250.044 426.953 253.651 431.147 253.651C435.638 253.651 439.11 250.044 439.11 245.552L439.11 181.42C439.11 176.928 435.498 173.321 431.147 173.321C426.648 173.321 423.202 176.928 423.202 181.42" id="Group" fill="url(#gradient_1)" fill-rule="evenodd" stroke="none" />
  </g>
</svg>